Coordinates
version=1
nRows=12
nColumns=24
inDegrees=yes

Units are S.I. units (second, meters, Newtons, ...)
Angles are in degrees.

endheader
time	pelvis_tilt	pelvis_list	pelvis_rotation	pelvis_tx	pelvis_ty	pelvis_tz	hip_flexion_r	hip_adduction_r	hip_rotation_r	knee_angle_r	ankle_angle_r	subtalar_angle_r	mtp_angle_r	hip_flexion_l	hip_adduction_l	hip_rotation_l	knee_angle_l	ankle_angle_l	subtalar_angle_l	mtp_angle_l	lumbar_extension	lumbar_bending	lumbar_rotation
      0.92350000	      3.21929147	      1.86637993	     -4.32071685	     -0.14564183	      1.01163981	      0.27353489	    -16.80970311	      1.25201423	      4.06036667	     -8.23260452	     12.15348930	    -13.25279230	      6.08505239	     15.93444735	      1.70785749	     -8.08417267	     -0.06117488	      1.00362447	     -7.60956151	      0.40104623	     -6.53683525	     -1.22893415	     11.88351463
      0.92766667	      3.22502537	      1.87328283	     -4.33671243	     -0.13974090	      1.01113085	      0.27325163	    -16.85940032	      1.20661084	      4.02446329	     -8.87314808	     12.26369400	    -13.12980537	      6.09084883	     15.85690833	      1.78909250	     -7.76343393	     -0.07308824	      1.01839603	     -7.62531447	      0.48300758	     -6.51662955	     -1.26471884	     11.91261226
      0.93183333	      3.25502918	      1.90177831	     -4.37569124	     -0.13375096	      1.01069954	      0.27295520	    -16.89836159	      1.11835039	      3.89931698	     -9.58651927	     12.35622418	    -12.81370217	      6.12078140	     15.71982388	      1.89671105	     -7.41830943	     -0.09699191	      0.97139051	     -7.73184814	      0.61454666	     -6.48589733	     -1.30920163	     11.95477489
      0.93600000	      3.27913868	      1.93726641	     -4.39873011	     -0.12777055	      1.01028893	      0.27265731	    -16.91095125	      1.03198953	      3.79158668	    -10.33825925	     12.42398657	    -12.56794185	      6.17941581	     15.61297909	      2.00994673	     -7.04845869	     -0.23470291	      0.89370900	     -7.84703906	      0.77428956	     -6.46404589	     -1.37139046	     11.97813648
      0.94016667	      3.32114374	      1.98396231	     -4.42268444	     -0.12176292	      1.00994324	      0.27235644	    -16.92025674	      0.93113302	      3.67989564	    -11.13428655	     12.47076193	    -12.32674131	      6.26055906	     15.48816608	      2.13525559	     -6.67397068	     -0.43975246	      0.79606087	     -7.96145198	      0.93355568	     -6.45666091	     -1.45414343	     11.99844699
      0.94433333	      3.33266963	      2.03947045	     -4.44132200	     -0.11572441	      1.00959296	      0.27204908	    -16.86781236	      0.82443778	      3.55794396	    -11.98577401	     12.48856581	    -12.07838520	      6.36870656	     15.40648902	      2.26751153	     -6.28599186	     -0.72244507	      0.65346864	     -8.10545905	      1.10092782	     -6.41014307	     -1.54892742	     12.01143005
      0.94850000	      3.38988749	      2.10734651	     -4.46297936	     -0.10966971	      1.00933567	      0.27173436	    -16.83365646	      0.69675965	      3.40578593	    -12.89609970	     12.47520070	    -11.79477082	      6.52089111	     15.26920297	      2.41695756	     -5.90223588	     -1.03677135	      0.46807552	     -8.28034760	      1.29476004	     -6.41452675	     -1.65369939	     12.01128030
      0.95266667	      3.42456314	      2.17888214	     -4.48011751	     -0.10358843	      1.00907966	      0.27141191	    -16.74868466	      0.56791273	      3.25666508	    -13.85636002	     12.42452909	    -11.53089758	      6.70944045	     15.16424262	      2.56794956	     -5.51576305	     -1.41172473	      0.25623423	     -8.46895451	      1.49859230	     -6.38633184	     -1.76748278	     12.00687287
      0.95683333	      3.46172871	      2.24463052	     -4.49317202	     -0.09751941	      1.00886067	      0.27106956	    -16.63570458	      0.44396713	      3.10131254	    -14.86954963	     12.32424515	    -11.24024773	      7.01613054	     15.07169203	      2.71304037	     -5.14460474	     -1.84843420	     -0.01910672	     -8.70928728	      1.78395819	     -6.37612462	     -1.86874650	     11.98659547
      0.96100000	      3.50042927	      2.33017376	     -4.50407144	     -0.09140978	      1.00867172	      0.27072514	    -16.48984759	      0.29728427	      2.91996906	    -15.94983684	     12.20237248	    -10.95736201	      7.37089898	     14.97475711	      2.87809258	     -4.78982853	     -2.31024395	     -0.28134770	     -8.91926418	      2.07097990	     -6.35075371	     -2.00193790	     11.96523654
      0.96516667	      3.53984077	      2.43687667	     -4.51985093	     -0.08524697	      1.00852480	      0.27038485	    -16.31233738	      0.12398180	      2.72677829	    -17.08921532	     12.02996191	    -10.69856483	      7.67919136	     14.86331466	      3.06318212	     -4.45865488	     -2.76911353	     -0.54505667	     -9.08686179	      2.28864759	     -6.30667817	     -2.16631814	     11.93359776
      0.96933333	      3.57985200	      2.51975197	     -4.52397405	     -0.07912671	      1.00840460	      0.27004712	    -16.11646731	     -0.01477898	      2.58365932	    -18.24377211	     11.68947272	    -10.66499421	     13.39240234	     14.77152839	      3.22139456	     -4.12657679	     -3.28126002	     -0.91556858	     -9.42874031	      5.85280905	     -6.28288360	     -2.30585372	     11.89252626
